<svg class="animated" id="freepik_stories-workout" xmlns="http://www.w3.org/2000/svg" viewBox="0 0 500 500" version="1.1" xmlns:xlink="http://www.w3.org/1999/xlink" xmlns:svgjs="http://svgjs.com/svgjs"><style>svg#freepik_stories-workout:not(.animated) .animable {opacity: 0;}svg#freepik_stories-workout.animated #freepik--background-complete--inject-2 {animation: 1s 1 forwards cubic-bezier(.36,-0.01,.5,1.38) slideDown;animation-delay: 0s;}svg#freepik_stories-workout.animated #freepik--Shadow--inject-2 {animation: 1s 1 forwards cubic-bezier(.36,-0.01,.5,1.38) slideLeft;animation-delay: 0s;}svg#freepik_stories-workout.animated #freepik--Character--inject-2 {animation: 1s 1 forwards cubic-bezier(.36,-0.01,.5,1.38) slideUp;animation-delay: 0s;}svg#freepik_stories-workout.animated #freepik--Bottle--inject-2 {animation: 1s 1 forwards cubic-bezier(.36,-0.01,.5,1.38) zoomIn;animation-delay: 0s;}            @keyframes slideDown {                0% {                    opacity: 0;                    transform: translateY(-30px);                }                100% {                    opacity: 1;                    transform: translateY(0);                }            }                    @keyframes slideLeft {                0% {                    opacity: 0;                    transform: translateX(-30px);                }                100% {                    opacity: 1;                    transform: translateX(0);                }            }                    @keyframes slideUp {                0% {                    opacity: 0;                    transform: translateY(30px);                }                100% {                    opacity: 1;                    transform: inherit;                }            }                    @keyframes zoomIn {                0% {                    opacity: 0;                    transform: scale(0.5);                }                100% {                    opacity: 1;                    transform: scale(1);                }            }        </style><g id="freepik--background-complete--inject-2" class="animable" style="transform-origin: 250px 228.53px;"><rect y="382.4" width="500" height="0.25" style="fill: rgb(235, 235, 235); transform-origin: 250px 382.525px;" id="elplvqdft6ycp" class="animable"></rect><rect x="400.67" y="393.04" width="33.12" height="0.25" style="fill: rgb(235, 235, 235); transform-origin: 417.23px 393.165px;" id="elgzrsr0hvk05" class="animable"></rect><rect x="304.38" y="392.92" width="8.69" height="0.25" style="fill: rgb(235, 235, 235); transform-origin: 308.725px 393.045px;" id="el0d4kjptcg768" class="animable"></rect><rect x="430.71" y="398.49" width="19.19" height="0.25" style="fill: rgb(235, 235, 235); transform-origin: 440.305px 398.615px;" id="elllmpnvhaysn" class="animable"></rect><rect x="71.41" y="401.81" width="43.19" height="0.25" style="fill: rgb(235, 235, 235); transform-origin: 93.005px 401.935px;" id="elzbnpp0ii7hr" class="animable"></rect><rect x="104.56" y="390.89" width="6.33" height="0.25" style="fill: rgb(235, 235, 235); transform-origin: 107.725px 391.015px;" id="elqxuam8kob2" class="animable"></rect><rect x="187.55" y="391.96" width="60.9" height="0.25" style="fill: rgb(235, 235, 235); transform-origin: 218px 392.085px;" id="elnxdshsudne" class="animable"></rect><path d="M237,337.8H43.91a5.71,5.71,0,0,1-5.7-5.71V60.66A5.71,5.71,0,0,1,43.91,55H237a5.71,5.71,0,0,1,5.71,5.71V332.09A5.71,5.71,0,0,1,237,337.8ZM43.91,55.2a5.46,5.46,0,0,0-5.45,5.46V332.09a5.46,5.46,0,0,0,5.45,5.46H237a5.47,5.47,0,0,0,5.46-5.46V60.66A5.47,5.47,0,0,0,237,55.2Z" style="fill: rgb(235, 235, 235); transform-origin: 140.46px 196.4px;" id="elg15rj5ykl7w" class="animable"></path><path d="M453.31,337.8H260.21a5.72,5.72,0,0,1-5.71-5.71V60.66A5.72,5.72,0,0,1,260.21,55h193.1A5.71,5.71,0,0,1,459,60.66V332.09A5.71,5.71,0,0,1,453.31,337.8ZM260.21,55.2a5.47,5.47,0,0,0-5.46,5.46V332.09a5.47,5.47,0,0,0,5.46,5.46h193.1a5.47,5.47,0,0,0,5.46-5.46V60.66a5.47,5.47,0,0,0-5.46-5.46Z" style="fill: rgb(235, 235, 235); transform-origin: 356.75px 196.4px;" id="elukzyd1dvlc" class="animable"></path><path d="M74.75,352.7a19.15,19.15,0,0,1-.82-5.11c0-6.78,5.44-8.17,13.61-8.17s13.61,1.39,13.61,8.17a18,18,0,0,1-.6,4.32,20.41,20.41,0,0,0-25.8.79Zm29.59,2.95a28.21,28.21,0,0,0,1.31-8.06C105.65,333,93,333,87.54,333s-18.11,0-18.11,14.61a29.27,29.27,0,0,0,1.67,9.19,20.53,20.53,0,0,0,2.21,25.62H103a20.48,20.48,0,0,0,1.37-26.75Z" style="fill: rgb(230, 230, 230); transform-origin: 88.156px 357.71px;" id="elb9xw67mvk6s" class="animable"></path><path d="M129.11,355a17.63,17.63,0,0,1-.75-4.71c0-6.24,5-7.52,12.55-7.52s12.54,1.28,12.54,7.52a16,16,0,0,1-.56,4,18.85,18.85,0,0,0-23.78.73Zm27.28,2.73a26.09,26.09,0,0,0,1.21-7.44c0-13.46-11.7-13.46-16.69-13.46s-16.7,0-16.7,13.46a27.15,27.15,0,0,0,1.54,8.48,18.94,18.94,0,0,0,2,23.61h27.34a18.88,18.88,0,0,0,1.26-24.65Z" style="fill: rgb(230, 230, 230); transform-origin: 141.432px 359.605px;" id="el1alytxylt2t" class="animable"></path><path d="M183.48,357.34a15.73,15.73,0,0,1-.69-4.3c0-5.72,4.59-6.89,11.48-6.89s11.48,1.17,11.48,6.89a15.13,15.13,0,0,1-.51,3.64,17.23,17.23,0,0,0-21.76.66Zm25,2.5a23.78,23.78,0,0,0,1.11-6.8c0-12.32-10.71-12.32-15.28-12.32S179,340.72,179,353a25,25,0,0,0,1.41,7.75,17.34,17.34,0,0,0,1.86,21.61h25a17.29,17.29,0,0,0,1.15-22.56Z" style="fill: rgb(230, 230, 230); transform-origin: 194.771px 361.54px;" id="ellgcsbotz5ap" class="animable"></path><path d="M237.84,359.67a14.8,14.8,0,0,1-.62-3.91c0-5.19,4.16-6.25,10.41-6.25s10.42,1.06,10.42,6.25a13.88,13.88,0,0,1-.46,3.31,15.64,15.64,0,0,0-19.75.6Zm22.65,2.26a21.53,21.53,0,0,0,1-6.17c0-11.18-9.71-11.18-13.86-11.18s-13.86,0-13.86,11.18a22.61,22.61,0,0,0,1.28,7,15.71,15.71,0,0,0,1.69,19.6h22.7a15.69,15.69,0,0,0,1.05-20.47Z" style="fill: rgb(230, 230, 230); transform-origin: 248.09px 363.47px;" id="elljhby73dhs" class="animable"></path><path d="M289.78,362a12.89,12.89,0,0,1-.56-3.5c0-4.66,3.74-5.61,9.35-5.61s9.35.95,9.35,5.61a11.94,11.94,0,0,1-.42,3,14.06,14.06,0,0,0-17.72.54Zm20.33,2a19.4,19.4,0,0,0,.9-5.54c0-10-8.72-10-12.44-10s-12.44,0-12.44,10a20.09,20.09,0,0,0,1.15,6.31,14.12,14.12,0,0,0,1.51,17.6h20.38a14.09,14.09,0,0,0,.94-18.37Z" style="fill: rgb(230, 230, 230); transform-origin: 298.98px 365.415px;" id="elkqtn60rnq3h" class="animable"></path><rect x="26.25" y="100.33" width="221.98" height="160.89" style="fill: rgb(245, 245, 245); transform-origin: 137.24px 180.775px;" id="el1u3wfs84snf" class="animable"></rect><rect x="84" y="185" width="164.22" height="76.22" style="fill: rgb(250, 250, 250); transform-origin: 166.11px 223.11px;" id="elh80qvpi3q1s" class="animable"></rect><g id="elkyt8i9cbq8"><rect x="25.44" y="100.33" width="0.8" height="160.89" style="fill: rgb(230, 230, 230); transform-origin: 25.84px 180.775px; transform: rotate(180deg);" class="animable" id="elxqxw3unfoj"></rect></g><polygon points="140.46 100.33 95.89 100.33 50.46 261.22 95.03 261.22 140.46 100.33" style="fill: rgb(255, 255, 255); transform-origin: 95.46px 180.775px;" id="el2b1ylombzky" class="animable"></polygon><polygon points="162.56 100.33 147.04 100.33 101.61 261.22 117.13 261.22 162.56 100.33" style="fill: rgb(255, 255, 255); transform-origin: 132.085px 180.775px;" id="el6fc2vql6z2w" class="animable"></polygon><rect x="252.58" y="100.33" width="221.98" height="160.89" style="fill: rgb(245, 245, 245); transform-origin: 363.57px 180.775px;" id="elglqu00r8h47" class="animable"></rect><rect x="324.07" y="153.44" width="102.04" height="76.22" style="fill: rgb(250, 250, 250); transform-origin: 375.09px 191.55px;" id="el1hq3e7e348k" class="animable"></rect><g id="elgzxovy73x74"><rect x="449.22" y="153.44" width="25.33" height="76.22" style="fill: rgb(250, 250, 250); transform-origin: 461.885px 191.55px; transform: rotate(180deg);" class="animable" id="ellhoss6t1nxf"></rect></g><g id="eliuuvanv0yzr"><rect x="251.78" y="100.33" width="0.8" height="160.89" style="fill: rgb(230, 230, 230); transform-origin: 252.18px 180.775px; transform: rotate(180deg);" class="animable" id="el4kp8m7aolsf"></rect></g><polygon points="344.5 100.33 320.49 100.33 275.05 261.22 299.06 261.22 344.5 100.33" style="fill: rgb(255, 255, 255); transform-origin: 309.775px 180.775px;" id="el9q2fummqcl" class="animable"></polygon><polygon points="374.97 100.33 350.96 100.33 305.53 261.22 329.54 261.22 374.97 100.33" style="fill: rgb(255, 255, 255); transform-origin: 340.25px 180.775px;" id="elo7cjd0a7him" class="animable"></polygon><rect x="32.69" y="283.67" width="442.09" height="8.67" style="fill: rgb(235, 235, 235); transform-origin: 253.735px 288.005px;" id="elpmgb908tpq9" class="animable"></rect><rect x="32.69" y="283.67" width="8.67" height="8.67" style="fill: rgb(224, 224, 224); transform-origin: 37.025px 288.005px;" id="elzhb1ut8jq6j" class="animable"></rect><path d="M353.84,307.44h1c20.31.52,38.39,17.1,40.62,37.48S383.22,381.88,363,382.39h-1c-20.69,0-39.32-16.78-41.58-37.47S333.15,307.44,353.84,307.44Zm5.2,43.71a5.47,5.47,0,0,0,5.54-6.22,7.13,7.13,0,0,0-6.9-6.23,5.48,5.48,0,0,0-5.55,6.23A7.13,7.13,0,0,0,359,351.15Z" style="fill: rgb(224, 224, 224); transform-origin: 357.941px 344.915px;" id="elfe3e5ywmbpd" class="animable"></path><path d="M354.65,307.45h1c20.7,0,39.31,16.79,41.58,37.49s-12.67,37.47-33.36,37.47h-1c-20.31-.51-38.39-17.09-40.63-37.46S334.45,308,354.65,307.45Zm5.76,43.7a5.47,5.47,0,0,0,5.54-6.22A7.13,7.13,0,0,0,359,338.7a5.48,5.48,0,0,0-5.54,6.23A7.13,7.13,0,0,0,360.41,351.15Z" style="fill: rgb(240, 240, 240); transform-origin: 359.735px 344.93px;" id="eljj42s5z69vr" class="animable"></path><path d="M335.42,324.34a26.93,26.93,0,0,1,19.74-8.17c16.66,0,31.65,13.5,33.48,30.16a27.32,27.32,0,0,1-5.81,20.53,27.17,27.17,0,0,0,7.06-21.93c-1.83-16.67-16.81-30.17-33.47-30.17A26.79,26.79,0,0,0,335.42,324.34Z" style="fill: rgb(230, 230, 230); transform-origin: 362.763px 340.808px;" id="elppxfbi7mxw" class="animable"></path><path d="M410.28,318.71h.82c17.26.44,32.62,14.53,34.52,31.84s-10.38,31.4-27.54,31.83h-.82c-17.58,0-33.4-14.26-35.33-31.84S392.7,318.71,410.28,318.71Zm4.42,37.14a4.66,4.66,0,0,0,4.71-5.29,6.07,6.07,0,0,0-5.87-5.29,4.65,4.65,0,0,0-4.71,5.29A6,6,0,0,0,414.7,355.85Z" style="fill: rgb(224, 224, 224); transform-origin: 413.775px 350.545px;" id="el3ygb93rbqnl" class="animable"></path><path d="M411,318.72h.82c17.59,0,33.4,14.26,35.33,31.85s-10.76,31.84-28.35,31.84H418c-17.26-.43-32.62-14.52-34.52-31.83S393.81,319.16,411,318.72Zm4.89,37.13a4.65,4.65,0,0,0,4.71-5.29,6.06,6.06,0,0,0-5.87-5.29,4.65,4.65,0,0,0-4.71,5.29A6.06,6.06,0,0,0,415.86,355.85Z" style="fill: rgb(245, 245, 245); transform-origin: 415.315px 350.565px;" id="elil1hzs1ehrm" class="animable"></path><path d="M394.63,333.06a22.89,22.89,0,0,1,16.77-6.93c14.16,0,26.89,11.47,28.45,25.62a23.26,23.26,0,0,1-4.94,17.45,23.08,23.08,0,0,0,6-18.64c-1.56-14.16-14.28-25.63-28.44-25.63A22.79,22.79,0,0,0,394.63,333.06Z" style="fill: rgb(230, 230, 230); transform-origin: 417.862px 347.063px;" id="elqpxy4nbw4pm" class="animable"></path></g><g id="freepik--Shadow--inject-2" class="animable" style="transform-origin: 250px 416.24px;"><ellipse id="freepik--path--inject-2" cx="250" cy="416.24" rx="193.89" ry="11.32" style="fill: rgb(245, 245, 245); transform-origin: 250px 416.24px;" class="animable"></ellipse></g><g id="freepik--Character--inject-2" class="animable" style="transform-origin: 259.075px 273.536px;"><path d="M235,199.68a7.2,7.2,0,0,0-9.94,2.17l-.22.35-.42.66-.5.74c-.33.51-.67,1-1,1.52-.7,1-1.41,2-2.15,3a64.92,64.92,0,0,1-4.61,5.55,34.84,34.84,0,0,1-5,4.49c-.43.32-.86.61-1.29.89-.34-.64-.68-1.41-1-2.22a58.08,58.08,0,0,1-2.16-7.09c-1.22-5-2.16-10.34-3.05-15.55l0-.12a3.59,3.59,0,0,0-7.12.25,95.22,95.22,0,0,0-.2,17.06,55.74,55.74,0,0,0,1.36,8.9,27,27,0,0,0,1.65,4.85,17.71,17.71,0,0,0,1.53,2.71,11.82,11.82,0,0,0,2.86,2.93,9.82,9.82,0,0,0,5.2,1.85,10.11,10.11,0,0,0,2.74-.21,8.88,8.88,0,0,0,1.19-.33l.54-.19.31-.11a30.83,30.83,0,0,0,4.7-2.23,43.16,43.16,0,0,0,7.71-5.82,59.31,59.31,0,0,0,6.16-6.78c.92-1.19,1.81-2.4,2.65-3.64.42-.63.83-1.26,1.23-1.91l.59-1,.63-1.1A7.21,7.21,0,0,0,235,199.68Z" style="fill: rgb(206, 122, 99); transform-origin: 217.187px 211.844px;" id="el0k8emcwh034k" class="animable"></path><path d="M202.79,195.75l5.58-5.83-11-2.84s-4.67,5.28-.34,9.91Z" style="fill: rgb(206, 122, 99); transform-origin: 201.78px 192.035px;" id="elrmhq67wncol" class="animable"></path><path d="M203.65,201.47l-7.16.46a1.84,1.84,0,0,1-2-1.86v-3.25a2.14,2.14,0,0,1,1.95-2.11l7.17-.46a1.83,1.83,0,0,1,1.95,1.86v3.25A2.13,2.13,0,0,1,203.65,201.47Z" style="fill: rgb(38, 50, 56); transform-origin: 200.025px 198.092px;" id="elbivkcrt9j77" class="animable"></path><polygon points="207.29 183.96 197.37 184.44 197.37 187.08 208.37 189.92 207.29 183.96" style="fill: rgb(206, 122, 99); transform-origin: 202.87px 186.94px;" id="el91uyop3ocoa" class="animable"></polygon><path d="M224.71,202.28c-.34,9.36,2,30.94,18.83,74.55L296.18,273c-1.26-7.23-12.32-38.41-14-72.83-.22-4.33-4.33-8-9.08-8.25-3-.13-6.44-.2-9.78-.08a210.9,210.9,0,0,0-23.08,1.82,95.94,95.94,0,0,0-10.38,2.39A6.72,6.72,0,0,0,224.71,202.28Z" style="fill: #27FFC0; transform-origin: 260.43px 234.304px;" id="eljn7l2j7c32m" class="animable"></path><g id="elhpwtlg69yr"><path d="M254,219.9a.49.49,0,0,1-.49-.42.5.5,0,0,1,.4-.58l9-1.6a.5.5,0,0,1,.18,1l-9,1.6Z" style="fill: rgb(255, 255, 255); opacity: 0.3; transform-origin: 258.504px 218.596px;" class="animable" id="elqbx1784jf4"></path></g><g id="elkfhqdakgu7s"><path d="M254.16,222a.5.5,0,0,1-.08-1l9-1.6a.49.49,0,0,1,.57.41.5.5,0,0,1-.4.58l-9,1.6Z" style="fill: rgb(255, 255, 255); opacity: 0.3; transform-origin: 258.638px 220.697px;" class="animable" id="elswh3rc503o"></path></g><g id="ells5vq4mozys"><path d="M254.3,224.18a.49.49,0,0,1-.49-.42.5.5,0,0,1,.4-.58l9-1.59a.5.5,0,0,1,.58.4.51.51,0,0,1-.41.58l-9,1.6Z" style="fill: rgb(255, 255, 255); opacity: 0.3; transform-origin: 258.799px 222.881px;" class="animable" id="elmfq8v221kd9"></path></g><g id="el2de5ud1m8jf"><path d="M290.36,273.83a.49.49,0,0,1-.49-.41c-.29-1.68-1.12-4.66-2.27-8.78-3.65-13.2-10.47-37.75-11.78-64.12a.5.5,0,0,1,1-.05c1.31,26.26,8.1,50.74,11.75,63.9,1.15,4.15,2,7.15,2.28,8.88a.5.5,0,0,1-.4.58Z" style="fill: rgb(255, 255, 255); opacity: 0.3; transform-origin: 283.339px 236.913px;" class="animable" id="ell20n679bq1i"></path></g><g id="elv5gxjxfsgp"><path d="M282.75,208.49c-4.93-2.24-9.65-3.63-9,0a39.59,39.59,0,0,0,12,21.34C284.48,223.09,283.43,215.91,282.75,208.49Z" style="opacity: 0.4; transform-origin: 279.72px 218.044px;" class="animable" id="elshdskym6fmo"></path></g><path d="M312.15,196l4.27-6.9-11.8-2.24s-3.47,6.21,2,11Z" style="fill: rgb(206, 122, 99); transform-origin: 309.977px 192.36px;" id="elqhjap5vt2fj" class="animable"></path><polygon points="315.17 183.55 305.11 183.72 304.62 186.81 316.42 189.05 315.17 183.55" style="fill: rgb(206, 122, 99); transform-origin: 310.52px 186.3px;" id="eldpi9ko9aei" class="animable"></polygon><path d="M147.73,221.43c-8,0-14.49-14.55-14.49-32.5s6.49-32.49,14.49-32.49h5.43v65Z" style="fill: #27FFC0; transform-origin: 143.2px 188.94px;" id="eliqwv0asa1dm" class="animable"></path><ellipse cx="153.16" cy="188.93" rx="14.49" ry="32.49" style="fill: #27FFC0; transform-origin: 153.16px 188.93px;" id="elwyki1xarkm" class="animable"></ellipse><g id="elho97g44pbkv"><ellipse cx="153.16" cy="188.93" rx="14.49" ry="32.49" style="opacity: 0.2; transform-origin: 153.16px 188.93px;" class="animable" id="el3q227jfl7ue"></ellipse></g><path d="M156.22,221.43c-8,0-14.49-14.55-14.49-32.5s6.49-32.49,14.49-32.49h5.43v65Z" style="fill: #27FFC0; transform-origin: 151.69px 188.94px;" id="elbv328gqs7qo" class="animable"></path><ellipse cx="161.65" cy="188.93" rx="14.49" ry="32.49" style="fill: #27FFC0; transform-origin: 161.65px 188.93px;" id="elayeteffvs87" class="animable"></ellipse><g id="elzri1yigmk5"><ellipse cx="161.65" cy="188.93" rx="14.49" ry="32.49" style="opacity: 0.2; transform-origin: 161.65px 188.93px;" class="animable" id="eltul9yp6p8b"></ellipse></g><g id="elgzqb55n52iw"><path d="M162.89,189.92,175.56,198a67.74,67.74,0,0,0,.57-8.35Z" style="opacity: 0.2; transform-origin: 169.51px 193.825px;" class="animable" id="elh7htoa7q5r"></path></g><path d="M350.93,190.71H163.71a1.78,1.78,0,0,1-1.78-1.78h0a1.78,1.78,0,0,1,1.78-1.78H350.93a1.79,1.79,0,0,1,1.78,1.78h0A1.79,1.79,0,0,1,350.93,190.71Z" style="fill: rgb(38, 50, 56); transform-origin: 257.32px 188.93px;" id="el40vkagz39l" class="animable"></path><g id="elbjz1vse11ou"><path d="M263.28,191.84a210.9,210.9,0,0,0-23.08,1.82c-.88.14-1.76.31-2.61.48h0c-2.25,4.92.38,12.23,7.46,20.48l2.08,2.42,1.27-2.93c4.53-10.39,10-17.48,15.81-20.5l3.56-1.82C266.28,191.77,264.77,191.79,263.28,191.84Z" style="fill: rgb(255, 255, 255); opacity: 0.9; transform-origin: 252.288px 204.411px;" class="animable" id="eleuhyujjpsl"></path></g><path d="M255.61,167.9c.08,7,1.45,19.75,7.67,23.94C256.79,195.2,251,203,246.56,213.31c-6.63-7.72-9.81-15.38-6.36-19.65,7.87-2.49,6.39-8.17,3.75-13.41Z" style="fill: rgb(206, 122, 99); transform-origin: 251.036px 190.605px;" id="elc08ix2rivil" class="animable"></path><g id="elbrxa1nxwx1"><path d="M250.86,172.94l-6.91,7.3a22.85,22.85,0,0,1,1.56,3.74c3.07-.67,6.7-4.23,6.35-7.33A10.43,10.43,0,0,0,250.86,172.94Z" style="opacity: 0.2; transform-origin: 247.917px 178.46px;" class="animable" id="elvj3s07fxfx"></path></g><path d="M232.2,148.35c-2.69,1.48-4.94,12.18,1.37,16.31S238.2,145.07,232.2,148.35Z" style="fill: rgb(38, 50, 56); transform-origin: 233.537px 156.591px;" id="elfzx2j2fx2tl" class="animable"></path><path d="M258.28,156.84c-.55,9.78-.37,15.53-5.28,20.65-7.39,7.71-19.47,3.51-21.86-6.19-2.14-8.73-.88-23.26,8.66-27.37A13.14,13.14,0,0,1,258.28,156.84Z" style="fill: rgb(206, 122, 99); transform-origin: 244.279px 162.133px;" id="elaqyuq7wii99" class="animable"></path><path d="M233.57,150.29c-8.85-3.55-16-14.28-11.28-20.07,6.24-7.72,13.19,5.11,33.29,9.7,16.26,3.7,10.25,17.86,4.85,23.54-3.46.92-6.69,1.66-6.69,1.66s-3.57-8.46-.06-13.72C249.89,152.6,239.63,152.72,233.57,150.29Z" style="fill: rgb(38, 50, 56); transform-origin: 243.462px 146.461px;" id="el4swtdh849ix" class="animable"></path><path d="M220.8,142.28s6.42,8.16,32.88,9.12C242,154.68,227,152.72,220.8,142.28Z" style="fill: rgb(38, 50, 56); transform-origin: 237.24px 147.566px;" id="elwl2if0kcww9" class="animable"></path><path d="M240.78,171.51a.22.22,0,0,1-.19-.24.24.24,0,0,1,.25-.22,6.43,6.43,0,0,0,5.3-2.19.23.23,0,1,1,.37.28,6.84,6.84,0,0,1-5.71,2.38Z" style="fill: rgb(38, 50, 56); transform-origin: 243.573px 170.153px;" id="elb9oipngculm" class="animable"></path><path d="M262.75,167.51a9.52,9.52,0,0,1-5.78,4.24c-3.18.77-2.75-1.6-1.73-4.53.92-2.65,1.83-6.72,5-6.19S264.32,164.91,262.75,167.51Z" style="fill: rgb(206, 122, 99); transform-origin: 258.997px 166.44px;" id="elj9kyh709sp" class="animable"></path><path d="M243.47,159.9c0,.8-.41,1.45-.93,1.46s-.95-.62-.95-1.42.41-1.44.93-1.46S243.47,159.11,243.47,159.9Z" style="fill: rgb(38, 50, 56); transform-origin: 242.53px 159.92px;" id="eltz30xqlyi4h" class="animable"></path><path d="M234.23,160.1c0,.8-.41,1.45-.93,1.47s-1-.63-1-1.42.41-1.45.93-1.47S234.23,159.31,234.23,160.1Z" style="fill: rgb(38, 50, 56); transform-origin: 233.265px 160.125px;" id="elhvofiduql3j" class="animable"></path><path d="M237.34,160.44s-1.79,4.62-3.77,6.88c1.42,1.29,3.81.63,3.81.63Z" style="fill: rgb(186, 77, 60); transform-origin: 235.475px 164.279px;" id="ela5qxln5sa9o" class="animable"></path><path d="M247.46,155.76a.45.45,0,0,1-.34-.12,3.63,3.63,0,0,0-3.18-1.07.45.45,0,0,1-.55-.35.48.48,0,0,1,.36-.56,4.56,4.56,0,0,1,4,1.3.47.47,0,0,1,0,.66A.45.45,0,0,1,247.46,155.76Z" style="fill: rgb(38, 50, 56); transform-origin: 245.633px 154.68px;" id="el1s9wedd0s6u" class="animable"></path><path d="M234,155.5a.4.4,0,0,1,0,.15.45.45,0,0,1-.46.47,4.76,4.76,0,0,1-3.9-1.81.45.45,0,0,1,.12-.64.47.47,0,0,1,.65.12,3.82,3.82,0,0,0,3.11,1.4A.49.49,0,0,1,234,155.5Z" style="fill: rgb(38, 50, 56); transform-origin: 231.781px 154.856px;" id="el3hm9aie1guq" class="animable"></path><path d="M313.7,204.36a64.66,64.66,0,0,0-1.65-8.61,3.6,3.6,0,0,0-7.07.74v.15a101.44,101.44,0,0,1-1.62,15.47,25.94,25.94,0,0,1-.91,3.29,11.4,11.4,0,0,1-.83,1.8l-.16-.08a21.64,21.64,0,0,1-5.05-3.21,59,59,0,0,1-5.21-5c-1.69-1.84-3.36-3.77-5-5.78-.8-1-1.58-2-2.37-3l-1.15-1.54-1.07-1.46-.17-.24a7.2,7.2,0,0,0-11.84,8.19c.49.75.87,1.31,1.3,1.94s.86,1.21,1.3,1.81c.87,1.19,1.79,2.34,2.72,3.49a83.17,83.17,0,0,0,6,6.62c1.09,1.06,2.21,2.1,3.39,3.11s2.45,2,3.77,2.91a31,31,0,0,0,9.44,4.66,12.53,12.53,0,0,0,8.25-.26,11.27,11.27,0,0,0,3.78-2.59,13.26,13.26,0,0,0,2.17-3,18.66,18.66,0,0,0,1.82-5.47,34.2,34.2,0,0,0,.54-4.87A55.33,55.33,0,0,0,313.7,204.36Z" style="fill: rgb(206, 122, 99); transform-origin: 291.267px 211.642px;" id="elx17hhx8iihj" class="animable"></path><path d="M260,275.63l-16.45,1.2s-57.66,13.38-55.44,43.76c1.49,20.4,10.16,53.4,16.11,74.23h13.5c-.81-20.83.65-52.82-5-73.67,8.74-1.61,38.76-12.34,49.36-15.88A27.3,27.3,0,0,0,260,275.63Z" style="fill: rgb(38, 50, 56); transform-origin: 226.77px 335.225px;" id="elifju7wyhcym" class="animable"></path><g id="elsixpmo0v1w"><path d="M240.87,294.31c-11.35,8.62-12.92,19.45-11.35,22,5-1.62,10.38-3.45,15.45-5.19C245,305.05,245.53,290.78,240.87,294.31Z" style="opacity: 0.4; transform-origin: 237.005px 305.033px;" class="animable" id="ell0tywmafqq"></path></g><path d="M281.74,274.05,260,275.63l21.74-1.57Z" style="fill: rgb(38, 50, 56); transform-origin: 270.87px 274.84px;" id="elyn8ua8119qq" class="animable"></path><path d="M296.18,273,260,275.63s-27,20.86-26.11,31a40.82,40.82,0,0,0,2.49,11.73c7.27,19.34,21.78,54.54,30.64,76.44h13.73c-4.07-22.49-8.48-58.65-17.46-75,9.5-4.24,22.49-9.6,31.44-16.43C304.77,295.76,296.18,273,296.18,273Z" style="fill: rgb(38, 50, 56); transform-origin: 266.735px 333.9px;" id="elzb723kqepun" class="animable"></path><path d="M209.93,414l8.44.15s-.21-7.84-.65-19.35h-13.5C207.48,406.25,209.93,414,209.93,414Z" style="fill: rgb(206, 122, 99); transform-origin: 211.295px 404.475px;" id="el1bfsy272swg" class="animable"></path><path d="M207.82,407.7l11,.08a.83.83,0,0,1,.82.7l1.37,9a1.58,1.58,0,0,1-1.58,1.79c-4-.1-9.73-.38-14.73-.42-5.86,0-5.71.24-12.58.19-4.15,0-5-4.25-3.25-4.61,8-1.67,9.28-1.81,16.42-6A4.79,4.79,0,0,1,207.82,407.7Z" style="fill: rgb(38, 50, 56); transform-origin: 204.518px 413.485px;" id="elxkhpicdeale" class="animable"></path><path d="M274.79,414l9.3.15s-1.28-7.91-3.34-19.35H267C271.63,406.23,274.79,414,274.79,414Z" style="fill: rgb(206, 122, 99); transform-origin: 275.545px 404.475px;" id="elt31yxwn6zhb" class="animable"></path><path d="M272.66,407.7l11,.08a.9.9,0,0,1,.86.7l1.93,9a1.47,1.47,0,0,1-1.47,1.79c-4-.1-9.75-.38-14.76-.42-5.86,0-1.08.24-7.95.19-4.15,0-5.26-4.18-3.53-4.61,6.47-1.64,8.81-3.32,11.43-6A3.3,3.3,0,0,1,272.66,407.7Z" style="fill: rgb(38, 50, 56); transform-origin: 272.22px 413.474px;" id="el39esnzfo5n7" class="animable"></path><path d="M353,221.43c-8,0-14.49-14.55-14.49-32.5S345,156.44,353,156.44h5.43v65Z" style="fill: #27FFC0; transform-origin: 348.47px 188.94px;" id="elsyuiz561u2k" class="animable"></path><g id="el99ai3pq3qrl"><path d="M353,221.43c-8,0-14.49-14.55-14.49-32.5S345,156.44,353,156.44h5.43v65Z" style="opacity: 0.2; transform-origin: 348.47px 188.94px;" class="animable" id="elxyydj51tfok"></path></g><ellipse cx="358.43" cy="188.93" rx="14.49" ry="32.49" style="fill: #27FFC0; transform-origin: 358.43px 188.93px;" id="elspfe8nsble9" class="animable"></ellipse><path d="M361.49,221.43c-8,0-14.49-14.55-14.49-32.5s6.49-32.49,14.49-32.49h5.43v65Z" style="fill: #27FFC0; transform-origin: 356.96px 188.94px;" id="elhmc5f0q22zm" class="animable"></path><g id="el8vfbmhrv4yo"><path d="M361.49,221.43c-8,0-14.49-14.55-14.49-32.5s6.49-32.49,14.49-32.49h5.43v65Z" style="opacity: 0.2; transform-origin: 356.96px 188.94px;" class="animable" id="elre9uslbtle"></path></g><path d="M382.63,175.19c-1.32-6.71-3.59-12.25-6.56-16l.78-.62c3.08,3.9,5.41,9.59,6.77,16.46Z" style="fill: #27FFC0; transform-origin: 379.845px 166.88px;" id="elemm67aeblxk" class="animable"></path><path d="M384.91,188.93h-1a76.15,76.15,0,0,0-.41-7.94l1-.11A75.54,75.54,0,0,1,384.91,188.93Z" style="fill: #27FFC0; transform-origin: 384.205px 184.905px;" id="elssr4rv60bi8" class="animable"></path><ellipse cx="366.92" cy="188.93" rx="14.49" ry="32.49" style="fill: #27FFC0; transform-origin: 366.92px 188.93px;" id="elnlkm1omp3vl" class="animable"></ellipse><path d="M368.61,206.68c-4.37,0-7.92-8-7.92-17.75s3.55-17.74,7.92-17.74h3v35.49Z" style="fill: #27FFC0; transform-origin: 366.15px 188.935px;" id="elc1asm5s38we" class="animable"></path><g id="el2c2a96qd08q"><path d="M371.57,206.68h-3c-4.36,0-7.91-8-7.91-17.74s3.55-17.75,7.91-17.75h3c-4.37,0-7.91,7.94-7.91,17.75S367.2,206.68,371.57,206.68Z" style="opacity: 0.2; transform-origin: 366.115px 188.935px;" class="animable" id="elsogbre5id2"></path></g><g id="el81q574qrokg"><ellipse cx="371.57" cy="188.93" rx="7.91" ry="17.74" style="fill: rgb(255, 255, 255); opacity: 0.1; transform-origin: 371.57px 188.93px;" class="animable" id="elvlbwnftofe"></ellipse></g></g><g id="freepik--Dumbbell--inject-2" class="animable" style="transform-origin: 373.895px 368.62px;"><polygon points="425.66 321 398.17 416.24 403.22 416.24 430.71 321 425.66 321" style="fill: rgb(38, 50, 56); transform-origin: 414.44px 368.62px;" id="elijxc9chs4ya" class="animable"></polygon><polygon points="341.84 416.24 346.89 416.24 374.38 321 369.32 321 341.84 416.24" style="fill: rgb(38, 50, 56); transform-origin: 358.11px 368.62px;" id="elc6rpjoskp8c" class="animable"></polygon><path d="M337.32,408.08a20.24,20.24,0,0,1,0-40.48h3.08v40.48Z" style="fill: #27FFC0; transform-origin: 328.74px 387.84px;" id="elxdggujdj64f" class="animable"></path><g id="el69sdrceovw5"><path d="M337.32,408.08a20.24,20.24,0,0,1,0-40.48h3.08v40.48Z" style="opacity: 0.2; transform-origin: 328.74px 387.84px;" class="animable" id="el0tzk2j7fhf7c"></path></g><circle cx="340.4" cy="387.84" r="20.24" style="fill: #27FFC0; transform-origin: 340.4px 387.84px;" id="elunjtpkkfhiq" class="animable"></circle><g id="elzy1gjlik80f"><path d="M337.32,367.6h3.08a20.24,20.24,0,1,1,0,40.48h-3.08a20.24,20.24,0,0,1,0-40.48Z" style="opacity: 0.1; transform-origin: 338.86px 387.84px;" class="animable" id="eldwhualr614l"></path></g><path d="M342.63,408.08a20.24,20.24,0,0,1,0-40.48h3.08v40.48Z" style="fill: #27FFC0; transform-origin: 334.05px 387.84px;" id="elc7hspjfw2ig" class="animable"></path><g id="elod89oaex5bc"><path d="M342.63,408.08a20.24,20.24,0,0,1,0-40.48h3.08v40.48Z" style="opacity: 0.2; transform-origin: 334.05px 387.84px;" class="animable" id="elkln19mxq7e9"></path></g><circle cx="345.71" cy="387.84" r="20.24" style="fill: #27FFC0; transform-origin: 345.71px 387.84px;" id="el4l8e3hxi72v" class="animable"></circle><g id="el2440ygg3rn9"><path d="M342.63,367.6h3.08a20.24,20.24,0,1,1,0,40.48h-3.08a20.24,20.24,0,0,1,0-40.48Z" style="opacity: 0.1; transform-origin: 344.17px 387.84px;" class="animable" id="elj6ct096edoo"></path></g><path d="M348.9,392.57h34.6a.75.75,0,0,0,.75-.76v-7.94a.75.75,0,0,0-.75-.76H348.9a4.73,4.73,0,0,0-4.73,4.73h0A4.73,4.73,0,0,0,348.9,392.57Z" style="fill: rgb(38, 50, 56); transform-origin: 364.21px 387.84px;" id="ela3rk7hoqp5s" class="animable"></path><path d="M389.42,408.08a20.24,20.24,0,0,1,0-40.48h3.08v40.48Z" style="fill: #27FFC0; transform-origin: 380.84px 387.84px;" id="el2lcepr54vb4" class="animable"></path><g id="el85amlovwm3v"><path d="M389.42,408.08a20.24,20.24,0,0,1,0-40.48h3.08v40.48Z" style="opacity: 0.2; transform-origin: 380.84px 387.84px;" class="animable" id="elspu4r7z14c"></path></g><circle cx="392.5" cy="387.84" r="20.24" style="fill: #27FFC0; transform-origin: 392.5px 387.84px;" id="elx2px25cv3xc" class="animable"></circle><path d="M394.72,408.08a20.24,20.24,0,0,1,0-40.48h3.08v40.48Z" style="fill: #27FFC0; transform-origin: 386.14px 387.84px;" id="elhyiid38wmma" class="animable"></path><g id="el80zr5y1euiv"><path d="M394.72,408.08a20.24,20.24,0,0,1,0-40.48h3.08v40.48Z" style="opacity: 0.2; transform-origin: 386.14px 387.84px;" class="animable" id="el1hatdenzhki"></path></g><circle cx="397.8" cy="387.84" r="20.24" style="fill: #27FFC0; transform-origin: 397.8px 387.84px;" id="el8je9fawvmia" class="animable"></circle><g id="elc8kxoaywb8d"><path d="M396.39,398.38a10.54,10.54,0,1,1,0-21.08h2.83v21.08Z" style="opacity: 0.2; transform-origin: 392.535px 387.84px;" class="animable" id="el1powxo8755sh"></path></g><circle cx="399.22" cy="387.84" r="10.54" style="fill: #27FFC0; transform-origin: 399.22px 387.84px;" id="elgh34cst6ais" class="animable"></circle><path d="M356.14,362.09a17.94,17.94,0,1,1,0-35.87h2.73v35.87Z" style="fill: #27FFC0; transform-origin: 348.323px 344.155px;" id="el2sjazui3dlc" class="animable"></path><g id="eltqnb4yd1nzm"><path d="M356.14,362.09a17.94,17.94,0,1,1,0-35.87h2.73v35.87Z" style="opacity: 0.2; transform-origin: 348.323px 344.155px;" class="animable" id="elzwwegp6702p"></path></g><g id="el0ypqhyggswo"><circle cx="358.87" cy="344.16" r="17.93" style="fill: #27FFC0; transform-origin: 358.87px 344.16px; transform: rotate(-89.14deg);" class="animable" id="el3recwd8ii3d"></circle></g><g id="elhzbic72834t"><path d="M356.14,326.22h2.73a17.94,17.94,0,0,1,0,35.87h-2.73a17.94,17.94,0,1,1,0-35.87Z" style="opacity: 0.1; transform-origin: 357.081px 344.155px;" class="animable" id="el4blrg4ic7nh"></path></g><path d="M360.84,362.09a17.94,17.94,0,0,1,0-35.87h2.73v35.87Z" style="fill: #27FFC0; transform-origin: 353.447px 344.155px;" id="elm4u2j9lres" class="animable"></path><g id="el68zx8wjtdi5"><path d="M360.84,362.09a17.94,17.94,0,0,1,0-35.87h2.73v35.87Z" style="opacity: 0.2; transform-origin: 353.447px 344.155px;" class="animable" id="ell62f8zwoug"></path></g><g id="el62wnawgqk3"><circle cx="363.57" cy="344.16" r="17.93" style="fill: #27FFC0; transform-origin: 363.57px 344.16px; transform: rotate(-89.14deg);" class="animable" id="el6z8s71afxgf"></circle></g><g id="elh5nc4qwuflb"><path d="M360.84,326.22h2.73a17.94,17.94,0,1,1,0,35.87h-2.73a17.94,17.94,0,0,1,0-35.87Z" style="opacity: 0.1; transform-origin: 362.629px 344.155px;" class="animable" id="eluerexyitr7"></path></g><g id="elyjibsubk92"><path d="M362.87,340h30.69a4.16,4.16,0,0,1,4.16,4.16v0a4.16,4.16,0,0,1-4.16,4.16H362.87a.66.66,0,0,1-.66-.66v-7A.66.66,0,0,1,362.87,340Z" style="fill: rgb(38, 50, 56); transform-origin: 379.965px 344.16px; transform: rotate(-180deg);" class="animable" id="el8xfrmf9xuv"></path></g><path d="M402.3,362.09a17.94,17.94,0,1,1,0-35.87H405v35.87Z" style="fill: #27FFC0; transform-origin: 394.468px 344.155px;" id="elv77upcrde9" class="animable"></path><g id="elk77gidn1aiq"><path d="M402.3,362.09a17.94,17.94,0,1,1,0-35.87H405v35.87Z" style="opacity: 0.2; transform-origin: 394.468px 344.155px;" class="animable" id="elxfjang4aim"></path></g><circle cx="405.03" cy="344.16" r="17.93" style="fill: #27FFC0; transform-origin: 405.03px 344.16px;" id="elustrb6rrkx" class="animable"></circle><path d="M407,362.09a17.94,17.94,0,0,1,0-35.87h2.73v35.87Z" style="fill: #27FFC0; transform-origin: 399.607px 344.155px;" id="elzzwyac2k16e" class="animable"></path><g id="el1cq4p536h6d"><path d="M407,362.09a17.94,17.94,0,0,1,0-35.87h2.73v35.87Z" style="opacity: 0.2; transform-origin: 399.607px 344.155px;" class="animable" id="eld5y7ojsflse"></path></g><circle cx="409.72" cy="344.16" r="17.93" style="fill: #27FFC0; transform-origin: 409.72px 344.16px;" id="el6rc6ne4i9zo" class="animable"></circle><g id="elyjfyc2xso"><path d="M408.47,353.49a9.34,9.34,0,1,1,0-18.67H411v18.67Z" style="opacity: 0.2; transform-origin: 404.912px 344.155px;" class="animable" id="elwip6g8yykl"></path></g><g id="elozuzn5bvpwo"><circle cx="410.98" cy="344.16" r="9.34" style="fill: #27FFC0; transform-origin: 410.98px 344.16px; transform: rotate(-1.14576deg);" class="animable" id="elfrxo4ihianu"></circle></g></g><g id="freepik--Bottle--inject-2" class="animable" style="transform-origin: 133.04px 385.245px;"><path d="M146.37,372.2c0-6.55-6-11.87-13.33-11.87s-13.33,5.32-13.33,11.87a11,11,0,0,0,2.72,7.18,3.68,3.68,0,0,1-1.08,5.6h0a3.15,3.15,0,0,0-1.64,2.77v26.46a2.68,2.68,0,0,0,2.68,2.68h21.3a2.68,2.68,0,0,0,2.68-2.68V387.75a3.14,3.14,0,0,0-1.65-2.77h0a3.68,3.68,0,0,1-1.08-5.6A11,11,0,0,0,146.37,372.2Z" style="fill: #27FFC0; transform-origin: 133.04px 388.61px;" id="elmcney8s6p8" class="animable"></path><g id="elv4xnahk6lc"><path d="M146.37,372.2c0-6.55-6-11.87-13.33-11.87s-13.33,5.32-13.33,11.87a11,11,0,0,0,2.72,7.18,3.68,3.68,0,0,1-1.08,5.6h0a3.15,3.15,0,0,0-1.64,2.77v26.46a2.68,2.68,0,0,0,2.68,2.68h21.3a2.68,2.68,0,0,0,2.68-2.68V387.75a3.14,3.14,0,0,0-1.65-2.77h0a3.68,3.68,0,0,1-1.08-5.6A11,11,0,0,0,146.37,372.2Z" style="fill: rgb(255, 255, 255); opacity: 0.2; transform-origin: 133.04px 388.61px;" class="animable" id="elngcugj9gkuh"></path></g><path d="M138.61,362.62H127.46a2.29,2.29,0,0,1-2.28-2.29h0a2.29,2.29,0,0,1,2.28-2.28h11.15a2.29,2.29,0,0,1,2.29,2.28h0A2.3,2.3,0,0,1,138.61,362.62Z" style="fill: rgb(38, 50, 56); transform-origin: 133.04px 360.335px;" id="elzvtvuoh7yno" class="animable"></path><rect x="129.42" y="353.6" width="7.24" height="6.73" rx="1.44" style="fill: rgb(38, 50, 56); transform-origin: 133.04px 356.965px;" id="el3s6ewe1obtx" class="animable"></rect></g><defs>     <filter id="active" height="200%">         <feMorphology in="SourceAlpha" result="DILATED" operator="dilate" radius="2"></feMorphology>                <feFlood flood-color="#32DFEC" flood-opacity="1" result="PINK"></feFlood>        <feComposite in="PINK" in2="DILATED" operator="in" result="OUTLINE"></feComposite>        <feMerge>            <feMergeNode in="OUTLINE"></feMergeNode>            <feMergeNode in="SourceGraphic"></feMergeNode>        </feMerge>    </filter>    <filter id="hover" height="200%">        <feMorphology in="SourceAlpha" result="DILATED" operator="dilate" radius="2"></feMorphology>                <feFlood flood-color="#ff0000" flood-opacity="0.5" result="PINK"></feFlood>        <feComposite in="PINK" in2="DILATED" operator="in" result="OUTLINE"></feComposite>        <feMerge>            <feMergeNode in="OUTLINE"></feMergeNode>            <feMergeNode in="SourceGraphic"></feMergeNode>        </feMerge>            <feColorMatrix type="matrix" values="0   0   0   0   0                0   1   0   0   0                0   0   0   0   0                0   0   0   1   0 "></feColorMatrix>    </filter></defs></svg>